<?xml version="1.0" encoding="UTF-8"?>
<svg data-bbox="-0.025 0 505.026 206.99" viewBox="0 0 505 207" xmlns="http://www.w3.org/2000/svg" data-type="color">
    <g>
        <path d="M185.9 73.4 176 84.8c-33.8 39.7-67.5 79.5-101.2 119.2-1.6 1.9-3.4 2.7-5.8 2.7H3.7c-1.3 0-3.1.4-3.6-1-.6-1.6 1.1-2.6 2-3.7 20.3-24 40.7-47.9 61.1-71.8 35.4-41.7 70.9-83.3 106.2-125C172.6 1.4 176.1 0 181 0c22.1.3 44.1.2 66.2.2 10.7 0 13.5 2.9 13.5 13.6v135.9c0 4.7-2.4 7-7.2 7-20.3 0-40.5-.1-60.8.1-4.2 0-5.7-1.3-5.7-5.6.2-24 .1-48 .1-72v-7.1z" fill="#ffffff" data-color="1"/>
        <path d="M409.7 127.5c-5.3 7.7-10 14.3-14.4 21.1-2.3 3.6-3.7 3.3-5.9 0-3.8-5.7-7.9-11.2-11.9-16.7-.6-.8-.8-2.2-2.2-1.7-1 .3-.9 1.5-1.1 2.3-1.7 6.5-3.4 12.9-5.1 19.4-.3 1.1-.6 2.3-1.1 3.4s-1.4 1.5-2.6 1.1c-1.1-.3-1.2-1.2-1-2.2.2-1.2.5-2.3.9-3.5 4.7-16.4 9.4-32.9 14.2-49.3.3-1.2.3-3 1.9-3.1 1.3-.1 1.8 1.4 2.4 2.4 5.8 8.5 11.6 17 17.3 25.5 1.8 2.7 2.8 3.3 4.8.1 5.5-8.7 11.3-17.1 17-25.7.6-.9 1-2.4 2.5-2.3 1.4.2 1.4 1.8 1.7 2.8 5.1 17.1 10.1 34.2 15.2 51.3.9 3.1.3 4.4-3.1 4.4-6-.1-11.9-.1-17.9 0-3 .1-4.2-1.3-4.9-4-2-8-4.3-16.1-6.7-25.3" fill="#ffffff" data-color="1"/>
        <path d="M505 127.4c.1 16.9-13.9 31-30.6 30.9-16.5-.1-30.5-14.2-30.5-30.6 0-16.7 13.5-30.3 30-30.3 17.4-.2 31 13 31.1 30m-30.3.1c0 7.7.1 15.5 0 23.2-.1 3.2 1.3 4.2 4.3 3.8 12.6-1.8 22.8-13.4 22.9-26.4.2-13.6-9.7-25.3-22.8-27.4-3.4-.5-4.5.7-4.4 4.1.1 7.6 0 15.1 0 22.7" fill="#ffffff" data-color="1"/>
        <path d="M269.4 127.5c0-8.2.1-16.4 0-24.6 0-2.7.7-4.4 3.7-4.3 6.7.1 13.4.3 20.1.4 3.1 0 2.6 2.3 2.6 4.1V146c0 4.5 2.3 6.8 6.8 6.8h16.1c1.3 0 3-.3 3.2 1.6.2 2.2-1.6 2.2-3.1 2.2h-45.6c-3 0-3.8-1.6-3.7-4.2-.1-8.2-.1-16.6-.1-24.9" fill="#ffffff" data-color="1"/>
        <path d="M329.3 127.4c0-7.9.1-15.8-.1-23.7-.1-3.3.7-4.9 4.5-4.7 5.6.3 11.3.2 17 .1 3.1-.1 4.2 1.2 4.2 4.2-.1 16.4-.1 32.8 0 49.1 0 3-1 4.4-4.1 4.3q-8.7-.15-17.4 0c-3.2.1-4.1-1.4-4.1-4.4z" fill="#ffffff" data-color="1"/>
        <path d="M138.5 200.1c3.7 3.2 8.4 3.1 11.6 6.1-7.3.7-12.4-4-18-7.3-.4.3-.8.5-.8.7-.7 6.6-.7 6.6-7.6 6.5-12-.2-10.6 1.9-10.7-10.6-.1-8 .1-16.1-.1-24.1-.1-3.9 1.4-5.3 5.2-5.1 6.5.4 13.1-.3 19.6.8 8.9 1.5 14.7 7.3 15.3 15.5.6 7.7-4.6 14.5-12.9 17.1-.4 0-.8.1-1.6.4m-7.4-17.8c0 3-.1 5.9 0 8.9.1 4.6 2.7 6.7 7.2 6.1 7.9-1.1 13.4-8.6 11.9-16.4-1.3-7.2-9.6-12.8-16.8-11.5-1.9.3-2.4 1.5-2.4 3.1.1 3.3.1 6.5.1 9.8" fill="#ffffff" data-color="1"/>
        <path d="M237.1 167.2v39c-2.3-1.4-1.7-3-1.7-4.3-.1-5.1-.1-10.1 0-15.2.1-2.8-.9-4.1-3.9-4-3.4.2-6.9.2-10.3 0-3-.1-4.3.9-4.2 4.1.2 4.9-.1 9.8.1 14.7.1 3.1-.9 4.6-4.3 4.6-16.5-.4-13.6 2.6-13.9-13.3-.1-7.3.1-14.6 0-21.9-.1-3.4 1.2-4.9 4.7-4.7 3.3.2 6.5.1 9.8 0 2.7-.1 3.6 1.2 3.7 3.8.5 9.7.6 9.7 10.2 9.7h.4c7.6 0 7.5 0 7.6-7.4.1-1.6-.5-3.5 1.8-5.1" fill="#ffffff" data-color="1"/>
        <path d="M342.1 178.8c-2.6 2.1-5.7 1.1-8.5 1.1-7.7.2-7.7.1-7.7 7.9 0 4 .1 8 0 12.1-.1 2.8 1.1 4.1 4 4 2.8-.1 5.7-.1 8.5 0 1.4.1 3-.5 3.9 1.2-.9 1.5-2.4 1-3.6 1-8.8.1-17.6-.1-26.4.1-3.5.1-4.7-1.3-4.6-4.7.2-10.3.1-20.5 0-30.8 0-2.9.8-4.4 4-4.4 8.6.1 17.3 0 25.9.1 1.2 0 3.1-.4 3.1 1.5-.1 1.5-1.8 1.3-2.9 1.3-2.8.1-5.7.2-8.5 0-3.3-.2-3.5 1.6-3.5 4.1 0 2.7.6 4.2 3.7 4 2.8-.3 5.7-.1 8.5 0 1.4 0 3.1-.4 4.1 1.5" fill="#ffffff" data-color="1"/>
        <path d="M403.7 166.4h16.5c1.3 0 3.2-.3 3.2 1.5.1 2-1.9 1.4-3.1 1.5-7.4.5-7.5.4-7.5 8 0 8.3-.1 16.7 0 25 .1 3.1-1.2 4.1-4.2 4.3-14.2.8-14.2.9-14.2-13 0-6.4-.2-12.8.1-19.2.2-4.2-1.4-5.6-5.4-5.3-1.7.1-5 .9-5-1.2 0-2.8 3.3-1.5 5.1-1.6 5-.1 9.7 0 14.5 0" fill="#ffffff" data-color="1"/>
        <path d="M284.3 166.3h16.1c1.2 0 3.1-.4 3.3 1.4.2 2-1.8 1.5-3 1.6-5.1.4-7.6 3.1-7.6 8.3 0 8-.1 16.1 0 24.1.1 3.3-1.2 4.3-4.5 4.4-13.9.3-13.9.4-13.9-13.3 0-6.3-.2-12.5.1-18.8.1-3.7-1.2-5.1-4.9-4.9-1.9.1-5.4 1-5.4-1.2 0-2.9 3.5-1.5 5.5-1.6 4.8-.1 9.5 0 14.3 0" fill="#ffffff" data-color="1"/>
        <path d="M382.2 175.1c-1.6.4-2-1-2.8-1.7-2.3-2.4-5.2-3.9-8.3-5s-4.8-.6-4.7 3.2c.1 9.5.1 19 0 28.6 0 3.5 1.5 4 4.5 3.1 4.2-1.2 7.5-3.6 10.1-7 .8-1 1.1-2.5 2.6-2.9.7 5.1-6.6 11.6-14.1 12.6-11.7 1.7-22-5.7-23.9-17-1.8-10.7 5.9-21.5 16.6-23.4 8.8-1.6 18.8 3.1 20 9.5" fill="#ffffff" data-color="1"/>
        <path d="M440.7 165.3c4.1-.2 7.7.8 10.9 3.3.7.5 1.5 1.3 1 2.2-.7 1.3-1.8.7-2.7.1-2-1.4-3.9-2.8-6.3-3.1-1.5-.2-3-.2-4 1.4-.9 1.5.1 2.6 1 3.6 3.5 4.1 7.1 8 10.5 12.2 3.2 3.9 6.3 8.1 3.9 13.4-2.7 5.8-8.2 7.5-14 8.1-5.3.5-10-1.2-14.1-4.6-.8-.6-1.9-1.5-1.1-2.6.9-1.2 1.9-.2 2.7.4 2.4 2.1 5.3 3.4 8.4 4 1.3.2 2.8.5 3.7-.8 1.1-1.5.1-2.9-.9-4-3.3-3.9-6.7-7.6-9.9-11.5-3.5-4.3-6.4-9-3.4-14.7 2.9-5.6 8.3-7.3 14.3-7.4" fill="#ffffff" data-color="1"/>
        <path d="M176 186v14.7c0 2.7 1.3 3.4 3.7 2.8 4.7-1.2 8.4-3.6 11.1-7.6.6-.9 1-2.8 2.4-1.9 1.4.8 0 2.1-.5 3.1-5 8.4-16 11.7-25 7.6-9.4-4.3-14-14.4-11-24.1s12.8-15.9 22.5-14.1c4.5.8 8.4 2.9 11.5 6.3.6.7 1.9 1.6.9 2.6-1.1 1.1-1.8-.3-2.5-1-2.5-2.7-5.5-4.4-9.1-5.3-2.9-.8-4.2-.2-4.1 3 .2 4.7.1 9.3.1 13.9" fill="#ffffff" data-color="1"/>
        <path d="M241.6 186.3c0-5.2.1-10.4 0-15.6-.1-3.3 1.3-4.6 4.5-4.4 3.1.1 6.3.1 9.4 0 3.2-.1 4.6 1 4.6 4.4-.1 10.4-.1 20.9 0 31.3 0 3-1.1 4.3-4.2 4.2-3.6-.1-7.2-.2-10.7 0-2.9.2-3.6-1.2-3.5-3.7 0-5.5-.1-10.8-.1-16.2" fill="#ffffff" data-color="1"/>
        <path d="M485.6 191c.8 4.3.5 8.6.1 13-.2 2-1.7 1.7-3 1-1.8-1-3.6-2-5.4-3.1-3.2-1.8-5.4-1-6.6 2.3v-11.7c0-2 1-2.3 2.6-1.4 2.3 1.3 4.7 2.6 6.9 4 2.6 1.6 4.3 2.1 4-2-.1-.7.1-1.4.2-2.1.4.1.8 0 1.2 0" fill="#ffffff" data-color="1"/>
        <path d="M501.8 192.9c-1.2.5-1.6-.2-2.2-.6-3.3-2.3-4.1-.9-3.8 2.5.2 1.6 0 3.3.1 4.9.1 1.5-.7 3.7 1.1 4.4 1.7.7 2.9-1 4.1-2.1.3-.2.7-.4 1.7-.8-2.1 4.5-5.3 5.5-9.2 4.7s-6.2-3.5-6.6-7.5c-.3-4 1.8-6.9 5.5-8.2 3.5-1.3 6.8-.8 9.3 2.7" fill="#ffffff" data-color="1"/>
        <path d="M461.6 197.9c0-1.3.1-2.7 0-4-.2-2.3 0-4.1 3.1-4.2 3 0 4.4 1.2 4.3 4.2-.1 2.5-.1 5 0 7.6.1 3.1-1 4.6-4.4 4.5-3.6-.1-3.1-2.3-3-4.5z" fill="#ffffff" data-color="1"/>
    </g>
</svg>
